<mxfile host="app.diagrams.net" agent="Mozilla/5.0 (Windows NT 10.0; Win64; x64) AppleWebKit/537.36 (KHTML, like Gecko) Chrome/127.0.0.0 Safari/537.36" version="24.7.6">
  <diagram name="Page-1" id="9LOCVyr0_nijj8VtArk6">
    <mxGraphModel dx="1235" dy="1838" grid="1" gridSize="10" guides="1" tooltips="1" connect="1" arrows="1" fold="1" page="1" pageScale="1" pageWidth="827" pageHeight="1169" math="0" shadow="0">
      <root>
        <mxCell id="0" />
        <mxCell id="1" parent="0" />
        <mxCell id="fI8hSi2GBOmGTAc_TbMu-35" value="" style="rounded=0;whiteSpace=wrap;html=1;" parent="1" vertex="1">
          <mxGeometry x="60" y="-50" width="680" height="630" as="geometry" />
        </mxCell>
        <mxCell id="fI8hSi2GBOmGTAc_TbMu-33" value="" style="endArrow=none;dashed=1;html=1;dashPattern=1 3;strokeWidth=2;rounded=0;entryX=0.5;entryY=1;entryDx=0;entryDy=0;" parent="1" target="fI8hSi2GBOmGTAc_TbMu-1" edge="1">
          <mxGeometry width="50" height="50" relative="1" as="geometry">
            <mxPoint x="615" y="550" as="sourcePoint" />
            <mxPoint x="183" y="90" as="targetPoint" />
          </mxGeometry>
        </mxCell>
        <mxCell id="fI8hSi2GBOmGTAc_TbMu-32" value="" style="endArrow=none;dashed=1;html=1;dashPattern=1 3;strokeWidth=2;rounded=0;entryX=0.5;entryY=1;entryDx=0;entryDy=0;" parent="1" target="fI8hSi2GBOmGTAc_TbMu-2" edge="1">
          <mxGeometry width="50" height="50" relative="1" as="geometry">
            <mxPoint x="173" y="550" as="sourcePoint" />
            <mxPoint x="408" y="270" as="targetPoint" />
          </mxGeometry>
        </mxCell>
        <mxCell id="fI8hSi2GBOmGTAc_TbMu-1" value="&lt;b&gt;&lt;font style=&quot;font-size: 14px;&quot;&gt;System&lt;/font&gt;&lt;/b&gt;" style="html=1;whiteSpace=wrap;fillColor=#ffe6cc;strokeColor=#d79b00;" parent="1" vertex="1">
          <mxGeometry x="560" y="30" width="110" height="50" as="geometry" />
        </mxCell>
        <mxCell id="fI8hSi2GBOmGTAc_TbMu-2" value="&lt;font size=&quot;1&quot; face=&quot;Helvetica&quot;&gt;&lt;b style=&quot;font-size: 14px;&quot;&gt;User&lt;/b&gt;&lt;/font&gt;" style="html=1;whiteSpace=wrap;fillColor=#ffe6cc;strokeColor=#d79b00;" parent="1" vertex="1">
          <mxGeometry x="118" y="30" width="110" height="50" as="geometry" />
        </mxCell>
        <mxCell id="fI8hSi2GBOmGTAc_TbMu-4" value="" style="html=1;points=[[0,0,0,0,5],[0,1,0,0,-5],[1,0,0,0,5],[1,1,0,0,-5]];perimeter=orthogonalPerimeter;outlineConnect=0;targetShapes=umlLifeline;portConstraint=eastwest;newEdgeStyle={&quot;curved&quot;:0,&quot;rounded&quot;:0};fillColor=#fff2cc;strokeColor=#d6b656;" parent="1" vertex="1">
          <mxGeometry x="165" y="90" width="15" height="440" as="geometry" />
        </mxCell>
        <mxCell id="fI8hSi2GBOmGTAc_TbMu-5" value="" style="html=1;points=[[0,0,0,0,5],[0,1,0,0,-5],[1,0,0,0,5],[1,1,0,0,-5]];perimeter=orthogonalPerimeter;outlineConnect=0;targetShapes=umlLifeline;portConstraint=eastwest;newEdgeStyle={&quot;curved&quot;:0,&quot;rounded&quot;:0};fillColor=#fff2cc;strokeColor=#d6b656;" parent="1" vertex="1">
          <mxGeometry x="607" y="90" width="15" height="440" as="geometry" />
        </mxCell>
        <mxCell id="fI8hSi2GBOmGTAc_TbMu-6" value="" style="endArrow=classic;html=1;rounded=0;" parent="1" edge="1">
          <mxGeometry width="50" height="50" relative="1" as="geometry">
            <mxPoint x="180" y="140" as="sourcePoint" />
            <mxPoint x="605" y="140" as="targetPoint" />
          </mxGeometry>
        </mxCell>
        <mxCell id="fI8hSi2GBOmGTAc_TbMu-9" value="&lt;b&gt;&lt;font style=&quot;font-size: 13px;&quot;&gt;SignUp&lt;/font&gt;&lt;/b&gt;" style="edgeLabel;html=1;align=center;verticalAlign=middle;resizable=0;points=[];" parent="fI8hSi2GBOmGTAc_TbMu-6" vertex="1" connectable="0">
          <mxGeometry x="-0.0729" relative="1" as="geometry">
            <mxPoint y="-10" as="offset" />
          </mxGeometry>
        </mxCell>
        <mxCell id="fI8hSi2GBOmGTAc_TbMu-10" value="" style="endArrow=classic;html=1;rounded=0;" parent="1" edge="1">
          <mxGeometry width="50" height="50" relative="1" as="geometry">
            <mxPoint x="605" y="180" as="sourcePoint" />
            <mxPoint x="180" y="180" as="targetPoint" />
          </mxGeometry>
        </mxCell>
        <mxCell id="fI8hSi2GBOmGTAc_TbMu-11" value="&lt;b&gt;&lt;font style=&quot;font-size: 13px;&quot;&gt;Request name, email, password, contact details&lt;/font&gt;&lt;/b&gt;" style="edgeLabel;html=1;align=center;verticalAlign=middle;resizable=0;points=[];" parent="fI8hSi2GBOmGTAc_TbMu-10" vertex="1" connectable="0">
          <mxGeometry x="-0.0729" relative="1" as="geometry">
            <mxPoint y="-10" as="offset" />
          </mxGeometry>
        </mxCell>
        <mxCell id="fI8hSi2GBOmGTAc_TbMu-12" value="" style="endArrow=classic;html=1;rounded=0;dashed=1;" parent="1" edge="1">
          <mxGeometry width="50" height="50" relative="1" as="geometry">
            <mxPoint x="182" y="220" as="sourcePoint" />
            <mxPoint x="607" y="220" as="targetPoint" />
          </mxGeometry>
        </mxCell>
        <mxCell id="fI8hSi2GBOmGTAc_TbMu-13" value="&lt;b&gt;&lt;font style=&quot;font-size: 13px;&quot;&gt;Provide required imformation&lt;/font&gt;&lt;/b&gt;" style="edgeLabel;html=1;align=center;verticalAlign=middle;resizable=0;points=[];" parent="fI8hSi2GBOmGTAc_TbMu-12" vertex="1" connectable="0">
          <mxGeometry x="-0.0729" relative="1" as="geometry">
            <mxPoint x="21" y="-11" as="offset" />
          </mxGeometry>
        </mxCell>
        <mxCell id="fI8hSi2GBOmGTAc_TbMu-16" value="alt" style="shape=umlFrame;whiteSpace=wrap;html=1;pointerEvents=0;width=50;height=20;" parent="1" vertex="1">
          <mxGeometry x="80" y="240" width="640" height="170" as="geometry" />
        </mxCell>
        <mxCell id="fI8hSi2GBOmGTAc_TbMu-17" value="&lt;b&gt;&lt;font style=&quot;font-size: 13px;&quot;&gt;if valid&lt;/font&gt;&lt;/b&gt;" style="text;html=1;align=center;verticalAlign=middle;resizable=0;points=[];autosize=1;strokeColor=none;fillColor=none;" parent="1" vertex="1">
          <mxGeometry x="97" y="259" width="60" height="30" as="geometry" />
        </mxCell>
        <mxCell id="fI8hSi2GBOmGTAc_TbMu-18" value="" style="endArrow=classic;html=1;rounded=0;" parent="1" edge="1">
          <mxGeometry width="50" height="50" relative="1" as="geometry">
            <mxPoint x="605" y="294" as="sourcePoint" />
            <mxPoint x="180" y="294" as="targetPoint" />
          </mxGeometry>
        </mxCell>
        <mxCell id="fI8hSi2GBOmGTAc_TbMu-19" value="&lt;b&gt;&lt;font style=&quot;font-size: 13px;&quot;&gt;Create account&lt;/font&gt;&lt;/b&gt;" style="edgeLabel;html=1;align=center;verticalAlign=middle;resizable=0;points=[];" parent="fI8hSi2GBOmGTAc_TbMu-18" vertex="1" connectable="0">
          <mxGeometry x="-0.0729" relative="1" as="geometry">
            <mxPoint y="-10" as="offset" />
          </mxGeometry>
        </mxCell>
        <mxCell id="fI8hSi2GBOmGTAc_TbMu-20" value="" style="endArrow=classic;html=1;rounded=0;" parent="1" edge="1">
          <mxGeometry width="50" height="50" relative="1" as="geometry">
            <mxPoint x="607" y="443" as="sourcePoint" />
            <mxPoint x="182" y="443" as="targetPoint" />
          </mxGeometry>
        </mxCell>
        <mxCell id="fI8hSi2GBOmGTAc_TbMu-21" value="&lt;span style=&quot;font-size: 13px;&quot;&gt;&lt;b&gt;Verification email&lt;/b&gt;&lt;/span&gt;" style="edgeLabel;html=1;align=center;verticalAlign=middle;resizable=0;points=[];" parent="fI8hSi2GBOmGTAc_TbMu-20" vertex="1" connectable="0">
          <mxGeometry x="-0.0729" relative="1" as="geometry">
            <mxPoint y="-10" as="offset" />
          </mxGeometry>
        </mxCell>
        <mxCell id="fI8hSi2GBOmGTAc_TbMu-22" value="" style="endArrow=classic;html=1;rounded=0;dashed=1;" parent="1" edge="1">
          <mxGeometry width="50" height="50" relative="1" as="geometry">
            <mxPoint x="182" y="473" as="sourcePoint" />
            <mxPoint x="607" y="473" as="targetPoint" />
          </mxGeometry>
        </mxCell>
        <mxCell id="fI8hSi2GBOmGTAc_TbMu-23" value="&lt;b&gt;&lt;font style=&quot;font-size: 13px;&quot;&gt;Verification link&lt;/font&gt;&lt;/b&gt;" style="edgeLabel;html=1;align=center;verticalAlign=middle;resizable=0;points=[];" parent="fI8hSi2GBOmGTAc_TbMu-22" vertex="1" connectable="0">
          <mxGeometry x="-0.0729" relative="1" as="geometry">
            <mxPoint x="21" y="-11" as="offset" />
          </mxGeometry>
        </mxCell>
        <mxCell id="fI8hSi2GBOmGTAc_TbMu-24" value="" style="endArrow=classic;html=1;rounded=0;" parent="1" edge="1">
          <mxGeometry width="50" height="50" relative="1" as="geometry">
            <mxPoint x="605" y="503" as="sourcePoint" />
            <mxPoint x="180" y="503" as="targetPoint" />
          </mxGeometry>
        </mxCell>
        <mxCell id="fI8hSi2GBOmGTAc_TbMu-25" value="&lt;span style=&quot;font-size: 13px;&quot;&gt;&lt;b&gt;Activate account&lt;/b&gt;&lt;/span&gt;" style="edgeLabel;html=1;align=center;verticalAlign=middle;resizable=0;points=[];" parent="fI8hSi2GBOmGTAc_TbMu-24" vertex="1" connectable="0">
          <mxGeometry x="-0.0729" relative="1" as="geometry">
            <mxPoint y="-10" as="offset" />
          </mxGeometry>
        </mxCell>
        <mxCell id="fI8hSi2GBOmGTAc_TbMu-26" value="" style="endArrow=none;dashed=1;html=1;rounded=0;exitX=0.001;exitY=0.467;exitDx=0;exitDy=0;exitPerimeter=0;" parent="1" source="fI8hSi2GBOmGTAc_TbMu-16" edge="1">
          <mxGeometry width="50" height="50" relative="1" as="geometry">
            <mxPoint x="96.89999999999999" y="319.9999999999999" as="sourcePoint" />
            <mxPoint x="721" y="320" as="targetPoint" />
            <Array as="points">
              <mxPoint x="721" y="320" />
            </Array>
          </mxGeometry>
        </mxCell>
        <mxCell id="fI8hSi2GBOmGTAc_TbMu-27" value="&lt;b&gt;&lt;font style=&quot;font-size: 13px;&quot;&gt;if not valid&lt;/font&gt;&lt;/b&gt;" style="text;html=1;align=center;verticalAlign=middle;resizable=0;points=[];autosize=1;strokeColor=none;fillColor=none;" parent="1" vertex="1">
          <mxGeometry x="85" y="321" width="90" height="30" as="geometry" />
        </mxCell>
        <mxCell id="fI8hSi2GBOmGTAc_TbMu-28" value="" style="endArrow=classic;html=1;rounded=0;" parent="1" edge="1">
          <mxGeometry width="50" height="50" relative="1" as="geometry">
            <mxPoint x="607" y="356" as="sourcePoint" />
            <mxPoint x="182" y="356" as="targetPoint" />
          </mxGeometry>
        </mxCell>
        <mxCell id="fI8hSi2GBOmGTAc_TbMu-29" value="&lt;b&gt;&lt;font style=&quot;font-size: 13px;&quot;&gt;Request correction&lt;/font&gt;&lt;/b&gt;" style="edgeLabel;html=1;align=center;verticalAlign=middle;resizable=0;points=[];" parent="fI8hSi2GBOmGTAc_TbMu-28" vertex="1" connectable="0">
          <mxGeometry x="-0.0729" relative="1" as="geometry">
            <mxPoint y="-10" as="offset" />
          </mxGeometry>
        </mxCell>
        <mxCell id="fI8hSi2GBOmGTAc_TbMu-30" value="" style="endArrow=classic;html=1;rounded=0;dashed=1;" parent="1" edge="1">
          <mxGeometry width="50" height="50" relative="1" as="geometry">
            <mxPoint x="181" y="392" as="sourcePoint" />
            <mxPoint x="606" y="392" as="targetPoint" />
          </mxGeometry>
        </mxCell>
        <mxCell id="fI8hSi2GBOmGTAc_TbMu-31" value="&lt;b&gt;&lt;font style=&quot;font-size: 13px;&quot;&gt;Re-enter correct information&lt;/font&gt;&lt;/b&gt;" style="edgeLabel;html=1;align=center;verticalAlign=middle;resizable=0;points=[];" parent="fI8hSi2GBOmGTAc_TbMu-30" vertex="1" connectable="0">
          <mxGeometry x="-0.0729" relative="1" as="geometry">
            <mxPoint x="21" y="-11" as="offset" />
          </mxGeometry>
        </mxCell>
        <mxCell id="fI8hSi2GBOmGTAc_TbMu-34" value="&lt;b&gt;&lt;font style=&quot;font-size: 16px;&quot;&gt;Sequence diagram for user account creation&lt;/font&gt;&lt;/b&gt;" style="text;html=1;align=center;verticalAlign=middle;resizable=0;points=[];autosize=1;strokeColor=none;fillColor=none;" parent="1" vertex="1">
          <mxGeometry x="220" y="-23" width="360" height="30" as="geometry" />
        </mxCell>
      </root>
    </mxGraphModel>
  </diagram>
</mxfile>
